<svg xmlns="http://www.w3.org/2000/svg" viewBox="0 0 64 64">
  <rect width="64" height="64" rx="14" fill="#0f7f8a"/>
  <path d="M21 16c-7 0-12 6-12 13 0 8 5 14 12 14s12-6 12-14c0-7-5-13-12-13Z" fill="#f7c6da"/>
  <path d="M42 11c-7 0-12 6-12 13 0 8 5 14 12 14s12-6 12-14c0-7-5-13-12-13Z" fill="#c9a7ff"/>
  <path d="M21 43l-4 6h8l-4-6Z" fill="#f7c6da"/>
  <path d="M42 38l-4 6h8l-4-6Z" fill="#c9a7ff"/>
  <path d="M21 49c0 6 11 2 11 9" fill="none" stroke="#ffd24a" stroke-width="3" stroke-linecap="round"/>
  <path d="M42 44c0 7-13 4-13 14" fill="none" stroke="#ffd24a" stroke-width="3" stroke-linecap="round"/>
  <path d="M17 20c-2 1-4 4-4 8" fill="none" stroke="#fff" stroke-width="3" stroke-linecap="round" opacity=".75"/>
  <path d="M38 15c-2 1-4 4-4 8" fill="none" stroke="#fff" stroke-width="3" stroke-linecap="round" opacity=".75"/>
</svg>
